<svg width="11" height="7" viewBox="0 0 11 7" fill="none" xmlns="http://www.w3.org/2000/svg">
<path fill-rule="evenodd" clip-rule="evenodd" d="M0.321677 0.335412C0.527708 0.129443 0.807109 0.0137354 1.09844 0.0137354C1.38977 0.0137354 1.66917 0.129443 1.8752 0.335412L5.49313 3.95334L9.11105 0.335412C9.2124 0.230477 9.33364 0.146778 9.46768 0.0891978C9.60172 0.0316174 9.74589 0.00130915 9.89177 4.14826e-05C10.0377 -0.00122618 10.1823 0.0265719 10.3173 0.0818141C10.4524 0.137056 10.575 0.218636 10.6782 0.321793C10.7814 0.424951 10.8629 0.54762 10.9182 0.682643C10.9734 0.817665 11.0012 0.962338 10.9999 1.10822C10.9987 1.2541 10.9684 1.39827 10.9108 1.53231C10.8532 1.66635 10.7695 1.78758 10.6646 1.88893L6.26989 6.28362C6.06386 6.48959 5.78446 6.6053 5.49313 6.6053C5.2018 6.6053 4.9224 6.48959 4.71637 6.28362L0.321677 1.88893C0.115707 1.6829 0 1.4035 0 1.11217C0 0.820844 0.115707 0.541443 0.321677 0.335412Z" fill="white"/>
</svg>
