<svg width="10" height="14" viewBox="0 0 10 14" fill="none" xmlns="http://www.w3.org/2000/svg">
<path d="M2.98943 6.36871C2.62847 6.45789 1.53922 6.71948 0.0699067 7.05242L1.46066 7.33483L1.9384 7.43887L2.92573 7.66182C3.19114 7.77082 3.75169 8.02152 3.8706 8.15232C3.99091 8.34059 4.25491 8.80036 4.34834 9.13331L4.59251 10.3075L4.82608 12.2546L5.02779 13.9193L5.08087 13.3843L5.1658 12.5073L5.31443 11.2736L5.39936 10.5156L5.53738 9.6238L5.81341 8.71713L6.07882 8.28609C6.35838 8.05323 6.99395 7.58751 7.29971 7.58751L9.92197 7.05242L9.22128 6.87406L7.84115 6.56193L6.7158 6.20521C6.48224 6.09621 5.99388 5.80984 5.90895 5.53635C5.80987 5.34313 5.59046 4.82588 5.50553 4.30269L5.00656 0.0368794L4.80484 1.98399L4.47573 4.42159C4.37665 4.83777 4.1169 5.69391 3.8706 5.78903C3.66181 5.98226 3.19327 6.36871 2.98943 6.36871Z" fill="#BB9A4B" stroke="#B8984B" stroke-width="0.61168"/>
</svg>
