<svg width="31" height="38" viewBox="0 0 31 38" fill="none" xmlns="http://www.w3.org/2000/svg">
<path fill-rule="evenodd" clip-rule="evenodd" d="M4.54012 4.5398C7.44691 1.63301 11.3894 0 15.5002 0C19.611 0 23.5534 1.63301 26.4602 4.5398C29.367 7.44658 31 11.389 31 15.4998C31 19.6106 29.367 23.5531 26.4602 26.4599L15.5002 37.4199L4.54012 26.4599C3.10074 25.0206 1.95894 23.312 1.17995 21.4314C0.400947 19.5509 0 17.5353 0 15.4998C0 13.4643 0.400947 11.4488 1.17995 9.56824C1.95894 7.68771 3.10074 5.97904 4.54012 4.5398ZM15.5002 19.9281C16.6746 19.9281 17.801 19.4616 18.6314 18.6311C19.4619 17.8006 19.9285 16.6743 19.9285 15.4998C19.9285 14.3254 19.4619 13.199 18.6314 12.3686C17.801 11.5381 16.6746 11.0715 15.5002 11.0715C14.3257 11.0715 13.1994 11.5381 12.3689 12.3686C11.5384 13.199 11.0719 14.3254 11.0719 15.4998C11.0719 16.6743 11.5384 17.8006 12.3689 18.6311C13.1994 19.4616 14.3257 19.9281 15.5002 19.9281Z" fill="#56A1A1"/>
</svg>
