<svg width="112" height="17" viewBox="0 0 112 17" fill="none" xmlns="http://www.w3.org/2000/svg">
<path d="M7.73474 0.824419C8.09269 -0.274481 9.64738 -0.274481 10.0041 0.824419L11.2808 4.7523C11.3588 4.99152 11.5104 5.19995 11.714 5.34781C11.9176 5.49568 12.1627 5.5754 12.4143 5.57558H16.545C17.7012 5.57558 18.1809 7.0551 17.2466 7.7352L13.9058 10.1621C13.7018 10.3101 13.5499 10.5189 13.4719 10.7585C13.3938 10.9981 13.3937 11.2563 13.4715 11.496L14.7481 15.4239C15.1061 16.5228 13.8473 17.438 12.9107 16.7579L9.56982 14.331C9.36604 14.183 9.12067 14.1034 8.86884 14.1034C8.61701 14.1034 8.37164 14.183 8.16786 14.331L4.82701 16.7579C3.89157 17.438 2.63398 16.5228 2.99074 15.4239L4.26742 11.496C4.34518 11.2563 4.34504 10.9981 4.26702 10.7585C4.189 10.5189 4.0371 10.3101 3.83311 10.1621L0.493453 7.73639C-0.440792 7.05629 0.040052 5.57677 1.19503 5.57677H5.32456C5.57637 5.57684 5.82175 5.49724 6.02557 5.34936C6.22938 5.20148 6.38119 4.9929 6.45925 4.75349L7.73593 0.825612L7.73474 0.824419Z" fill="#FBBC05"/>
<path d="M55.4611 0.824175C55.819 -0.274725 57.3737 -0.274725 57.7304 0.824175L59.0071 4.75206C59.0851 4.99127 59.2368 5.19971 59.4403 5.34757C59.6439 5.49543 59.889 5.57515 60.1406 5.57534H64.2714C65.4275 5.57534 65.9072 7.05486 64.9729 7.73496L61.6321 10.1618C61.4281 10.3098 61.2762 10.5186 61.1982 10.7582C61.1201 10.9979 61.12 11.2561 61.1978 11.4958L62.4745 15.4237C62.8324 16.5226 61.5736 17.4377 60.637 16.7576L57.2961 14.3307C57.0924 14.1828 56.847 14.1031 56.5952 14.1031C56.3433 14.1031 56.098 14.1828 55.8942 14.3307L52.5533 16.7576C51.6179 17.4377 50.3603 16.5226 50.7171 15.4237L51.9937 11.4958C52.0715 11.2561 52.0714 10.9979 51.9933 10.7582C51.9153 10.5186 51.7634 10.3098 51.5594 10.1618L48.2198 7.73615C47.2855 7.05605 47.7664 5.57653 48.9213 5.57653H53.0509C53.3027 5.5766 53.5481 5.49699 53.7519 5.34911C53.9557 5.20123 54.1075 4.99266 54.1856 4.75325L55.4623 0.825368L55.4611 0.824175Z" fill="#FBBC05"/>
<path d="M31.598 0.824175C31.956 -0.274725 33.5107 -0.274725 33.8674 0.824175L35.1441 4.75206C35.2221 4.99127 35.3737 5.19971 35.5773 5.34757C35.7809 5.49543 36.026 5.57515 36.2776 5.57534H40.4083C41.5645 5.57534 42.0441 7.05486 41.1099 7.73496L37.769 10.1618C37.5651 10.3098 37.4132 10.5186 37.3351 10.7582C37.2571 10.9979 37.257 11.2561 37.3347 11.4958L38.6114 15.4237C38.9694 16.5226 37.7106 17.4377 36.7739 16.7576L33.4331 14.3307C33.2293 14.1828 32.9839 14.1031 32.7321 14.1031C32.4803 14.1031 32.2349 14.1828 32.0311 14.3307L28.6903 16.7576C27.7549 17.4377 26.4973 16.5226 26.854 15.4237L28.1307 11.4958C28.2085 11.2561 28.2083 10.9979 28.1303 10.7582C28.0523 10.5186 27.9004 10.3098 27.6964 10.1618L24.3567 7.73615C23.4225 7.05605 23.9033 5.57653 25.0583 5.57653H29.1878C29.4397 5.5766 29.685 5.49699 29.8888 5.34911C30.0927 5.20123 30.2445 4.99266 30.3225 4.75325L31.5992 0.825368L31.598 0.824175Z" fill="#FBBC05"/>
<path d="M78.1311 0.824175C78.4891 -0.274725 80.0437 -0.274725 80.4005 0.824175L81.6772 4.75206C81.7552 4.99127 81.9068 5.19971 82.1104 5.34757C82.314 5.49543 82.5591 5.57515 82.8107 5.57534H86.9414C88.0976 5.57534 88.5772 7.05486 87.643 7.73496L84.3021 10.1618C84.0981 10.3098 83.9462 10.5186 83.8682 10.7582C83.7902 10.9979 83.7901 11.2561 83.8678 11.4958L85.1445 15.4237C85.5024 16.5226 84.2437 17.4377 83.307 16.7576L79.9662 14.3307C79.7624 14.1828 79.517 14.1031 79.2652 14.1031C79.0134 14.1031 78.768 14.1828 78.5642 14.3307L75.2234 16.7576C74.2879 17.4377 73.0303 16.5226 73.3871 15.4237L74.6638 11.4958C74.7415 11.2561 74.7414 10.9979 74.6634 10.7582C74.5854 10.5186 74.4335 10.3098 74.2295 10.1618L70.8898 7.73615C69.9556 7.05605 70.4364 5.57653 71.5914 5.57653H75.7209C75.9727 5.5766 76.2181 5.49699 76.4219 5.34911C76.6257 5.20123 76.7776 4.99266 76.8556 4.75325L78.1323 0.825368L78.1311 0.824175Z" fill="#FBBC05"/>
<path d="M101.994 0.824175C102.352 -0.274725 103.907 -0.274725 104.264 0.824175L105.54 4.75206C105.618 4.99127 105.77 5.19971 105.974 5.34757C106.177 5.49543 106.422 5.57515 106.674 5.57534H110.805C111.961 5.57534 112.44 7.05486 111.506 7.73496L108.165 10.1618C107.961 10.3098 107.81 10.5186 107.731 10.7582C107.653 10.9979 107.653 11.2561 107.731 11.4958L109.008 15.4237C109.366 16.5226 108.107 17.4377 107.17 16.7576L103.829 14.3307C103.626 14.1828 103.38 14.1031 103.128 14.1031C102.877 14.1031 102.631 14.1828 102.428 14.3307L99.0867 16.7576C98.1512 17.4377 96.8936 16.5226 97.2504 15.4237L98.5271 11.4958C98.6048 11.2561 98.6047 10.9979 98.5267 10.7582C98.4486 10.5186 98.2967 10.3098 98.0928 10.1618L94.7531 7.73615C93.8189 7.05605 94.2997 5.57653 95.4547 5.57653H99.5842C99.836 5.5766 100.081 5.49699 100.285 5.34911C100.489 5.20123 100.641 4.99266 100.719 4.75325L101.996 0.825368L101.994 0.824175Z" fill="#FBBC05"/>
</svg>
