<svg width="91" height="38" viewBox="0 0 91 38" fill="none" xmlns="http://www.w3.org/2000/svg">
<path fill-rule="evenodd" clip-rule="evenodd" d="M17.6922 32.2234V32.8472C17.6922 35.6387 15.4291 37.9021 12.6373 37.9021H5.05492C2.26316 37.9021 0 35.6387 0 32.8472V5.05672C0 2.26514 2.26316 0.00179791 5.05492 0.00179791H12.6373C15.0283 0.00179791 17.0315 1.66184 17.5575 3.89232C20.9049 2.68596 24.8146 1.25011 26.0109 0.704682C27.0269 0.241904 28.2001 0.0846985 29.175 0.0283361C30.2001 -0.0308065 31.2637 0.0101368 32.1943 0.0821694C33.133 0.154708 33.985 0.263137 34.6002 0.352609C34.909 0.397597 35.1618 0.43829 35.34 0.468114C35.4292 0.483279 35.5 0.495412 35.55 0.50451L35.6094 0.515126L35.6268 0.518409L35.6359 0.519927L35.6812 0.528523L52.5869 4.32098L52.6925 4.35484L52.7213 4.36369L52.8378 4.39933C52.9442 4.43143 53.1057 4.47869 53.314 4.53631C53.7313 4.65207 54.3313 4.80802 55.0466 4.96396C56.4996 5.28091 58.33 5.57687 60.0368 5.57687C61.6137 5.57687 63.2449 6.16451 64.1169 7.76161C64.8658 9.13276 64.6914 10.6384 64.4111 11.6809C64.062 12.9785 63.3392 14.3441 62.4202 15.5042C63.6604 15.0364 65.0161 14.4824 66.4715 13.8854L66.7826 13.7575C70.8847 12.0742 75.7488 10.078 80.0391 9.36857C84.9416 8.5575 88.5099 10.3371 90.1275 13.4944C91.5674 16.3047 91.233 19.9933 89.0659 22.2157C88.522 22.7735 87.6933 23.3586 86.861 23.8984C85.9723 24.4747 84.8777 25.126 83.6615 25.8158C81.2255 27.1975 78.21 28.7858 75.1824 30.3212C69.1872 33.3618 62.9029 36.3186 60.906 37.0498C58.5918 37.8975 56.1061 37.9777 53.7156 37.8546C52.4135 37.7876 50.9008 37.6372 49.3972 37.4876C48.3109 37.3797 47.2296 37.272 46.2361 37.1969C41.3637 36.8277 37.624 35.6385 34.1794 34.5431L33.7606 34.4099C30.2029 33.2806 26.8932 32.279 22.508 32.1023C21.5054 32.0619 19.5034 32.1354 17.6922 32.2234ZM28.1074 5.30441C28.2694 5.23061 28.6991 5.1194 29.4664 5.07492C30.1832 5.03347 31.0011 5.05975 31.8043 5.12193C32.5994 5.1836 33.3344 5.27661 33.8725 5.35471C34.1399 5.39363 34.3555 5.42851 34.5014 5.45302C34.5744 5.46541 34.6295 5.47501 34.6651 5.48133L34.6707 5.48234L51.2698 9.20605L51.3838 9.24068C51.5218 9.28213 51.7182 9.3395 51.9638 9.40775C52.4544 9.54372 53.1467 9.72317 53.9691 9.90262C55.4482 10.2254 57.4297 10.5658 59.4497 10.6235C59.3056 11.0321 59.0617 11.5146 58.7311 11.9951C58.3277 12.5815 57.8847 13.0349 57.521 13.2945C56.468 14.0466 55.6183 14.3613 55.1024 14.4953C54.8413 14.563 54.6576 14.5865 54.5669 14.5946L54.5332 14.5974L54.5135 14.5984L40.9613 14.4346L40.4775 19.4483L40.9307 16.9618L40.4801 19.4488L40.6145 19.4731L41 19.5424C41.3336 19.6023 41.8141 19.6877 42.4047 19.7911C43.585 19.9978 45.2064 20.2763 46.9693 20.5635C50.4431 21.1296 54.6301 21.7569 57.0056 21.9002C58.6462 21.9993 60.5569 21.4958 62.334 20.9024C64.1884 20.2834 66.2832 19.4263 68.3898 18.562C72.7302 16.7816 77.1497 14.9699 80.8641 14.3558C84.075 13.8245 85.2179 14.9975 85.6286 15.7992C86.217 16.9479 85.897 18.2248 85.4469 18.6866C85.3364 18.7998 84.9383 19.1203 84.1104 19.6574C83.3387 20.1578 82.3396 20.7543 81.1676 21.419C78.8269 22.7464 75.8883 24.2952 72.896 25.813C66.8516 28.8785 60.835 31.6926 59.1676 32.3033C57.8174 32.7979 56.1488 32.9182 53.9757 32.8062C52.692 32.7403 51.4743 32.6164 50.1466 32.4812C49.0734 32.372 47.9282 32.2557 46.618 32.1564C42.342 31.8324 39.0912 30.7997 35.6076 29.6929L35.2902 29.592C31.682 28.4466 27.821 27.2572 22.7115 27.0514C21.5613 27.0052 19.5135 27.0762 17.6922 27.1624V9.21515C21.2446 7.94384 26.5057 6.03459 28.1074 5.30441ZM35.1726 3.00468L35.6359 0.519927C35.6364 0.52018 35.6359 0.519929 35.1726 3.00468ZM12.6373 5.05672H5.05492V32.8472H12.6373V5.05672Z" fill="#EEEEEE"/>
</svg>
