<svg width="166" height="43" viewBox="0 0 166 43" fill="none" xmlns="http://www.w3.org/2000/svg">
<path d="M154.45 42.3911C152.071 42.3911 150.136 41.9774 148.647 41.1498C147.157 40.3223 146.071 39.2465 145.388 37.9224C144.726 36.5777 144.416 35.1502 144.457 33.6399H146.568C146.485 35.8122 147.219 37.5293 148.771 38.7913C150.343 40.0326 152.319 40.6533 154.698 40.6533C156.974 40.6533 158.95 40.0947 160.625 38.9775C162.301 37.8604 163.242 36.3708 163.449 34.5088C163.615 32.9986 163.201 31.84 162.208 31.0332C161.215 30.2056 159.767 29.4712 157.863 28.8298L153.55 27.3713C151.253 26.5851 149.516 25.5818 148.336 24.3611C147.178 23.1405 146.702 21.5475 146.909 19.5821C147.074 18.1339 147.571 16.8512 148.398 15.7341C149.226 14.6169 150.364 13.7376 151.812 13.0963C153.26 12.4549 154.977 12.1343 156.963 12.1343C159.818 12.1343 162.053 12.7756 163.667 14.0583C165.301 15.3203 166.077 16.9236 165.994 18.8684H163.791C163.708 17.2133 163.036 15.9823 161.774 15.1755C160.532 14.3479 158.919 13.9342 156.932 13.9342C155.174 13.9342 153.726 14.2134 152.588 14.772C151.471 15.3306 150.622 16.034 150.043 16.8823C149.485 17.7098 149.143 18.558 149.019 19.4269C148.812 20.9372 149.226 22.1785 150.26 23.1509C151.295 24.1232 152.764 24.9094 154.667 25.5093L158.701 26.7507C161.039 27.4541 162.808 28.4368 164.008 29.6988C165.229 30.9401 165.725 32.5434 165.497 34.5088C165.332 35.9156 164.794 37.219 163.884 38.4189C162.994 39.6189 161.753 40.5809 160.16 41.305C158.588 42.0291 156.684 42.3911 154.45 42.3911Z" fill="#F1F1F1"/>
<path d="M120.628 41.9256L123.359 12.7859H125.065L124.724 19.2407C125.717 16.9857 127.062 15.2375 128.758 13.9962C130.455 12.7549 132.441 12.1343 134.717 12.1343C136.703 12.1343 138.41 12.6101 139.837 13.5618C141.265 14.5134 142.309 15.9306 142.971 17.8132C143.654 19.6752 143.851 21.9716 143.561 24.7025L141.947 41.9256H140.085L141.699 24.7025C142.03 21.1648 141.502 18.5063 140.116 16.7271C138.73 14.9272 136.806 14.0273 134.344 14.0273C131.303 14.0273 128.914 15.2686 127.176 17.7512C125.438 20.2338 124.393 23.4095 124.041 27.2782L122.676 41.9256H120.628Z" fill="#F1F1F1"/>
<path d="M107.335 42.3911C104.977 42.3911 102.97 41.8119 101.315 40.6533C99.6805 39.4741 98.4909 37.7569 97.7462 35.5019C97.0014 33.2468 96.7841 30.516 97.0945 27.3092C97.4255 24.1025 98.1806 21.3717 99.3599 19.1166C100.539 16.8409 102.06 15.1134 103.922 13.9342C105.784 12.7342 107.894 12.1343 110.252 12.1343C112.652 12.1343 114.669 12.7446 116.304 13.9652C117.938 15.1858 119.117 16.934 119.841 19.2097C120.586 21.4648 120.803 24.1646 120.493 27.3092C120.203 30.4953 119.459 33.2158 118.259 35.4708C117.08 37.7052 115.559 39.4223 113.697 40.6223C111.835 41.8015 109.714 42.3911 107.335 42.3911ZM107.428 40.5292C110.676 40.5292 113.211 39.3086 115.031 36.8673C116.873 34.4054 117.99 31.2194 118.383 27.3092C118.776 23.3784 118.29 20.1924 116.924 17.7512C115.559 15.2892 113.242 14.0583 109.973 14.0583C106.746 14.0583 104.263 15.2686 102.525 17.6891C100.808 20.089 99.7633 23.2957 99.3909 27.3092C99.1633 29.8539 99.2668 32.1297 99.7012 34.1364C100.156 36.1225 101.005 37.6845 102.246 38.8224C103.508 39.9602 105.235 40.5292 107.428 40.5292Z" fill="#F1F1F1"/>
<path d="M95.9954 4.09656C95.4989 4.09656 95.1265 3.93105 94.8783 3.60004C94.6507 3.26902 94.5576 2.87594 94.599 2.4208C94.6404 2.04841 94.7955 1.65532 95.0645 1.24155C95.3334 0.807096 95.7575 0.589867 96.3368 0.589867C96.854 0.589867 97.2368 0.776064 97.485 1.14846C97.7333 1.52085 97.8367 1.94496 97.7953 2.4208C97.7333 2.93801 97.5264 3.35178 97.1747 3.6621C96.8437 3.95174 96.4506 4.09656 95.9954 4.09656ZM91.3095 41.9254L94.0404 12.7236H96.0885L93.3577 41.9254H91.3095Z" fill="#F1F1F1"/>
<path d="M86.2296 42.3906C84.9056 42.3906 83.778 42.1216 82.8471 41.5837C81.9368 41.0458 81.2747 40.2286 80.861 39.1322C80.4472 38.0357 80.3231 36.6495 80.4886 34.9738L82.4126 13.8405L83.6849 14.4612H77.3233L77.6956 12.7854H83.778L82.2264 14.1819L83.2815 4.22038H85.3297L84.2746 14.1819L83.0333 12.7854H93.8947L93.6464 14.4612H82.816L84.3366 13.8405L82.2885 35.0979C82.123 36.8771 82.3919 38.2322 83.0953 39.1632C83.7987 40.0735 84.8642 40.5286 86.2917 40.5286C87.1606 40.5286 88.0192 40.4148 88.8674 40.1873C89.7156 39.9597 90.6052 39.6494 91.5362 39.2563L91.6603 40.932C90.7087 41.4493 89.7777 41.8216 88.8674 42.0492C87.9571 42.2768 87.0779 42.3906 86.2296 42.3906Z" fill="#F1F1F1"/>
<path d="M62.5883 42.4835C60.4988 42.4835 58.7713 42.0387 57.4058 41.1491C56.0404 40.2595 55.0577 38.9768 54.4577 37.301C53.8785 35.6046 53.6819 33.5668 53.8681 31.1876L55.5749 12.7231H57.6231L55.9783 31.2186C55.6266 34.2805 56.0301 36.5976 57.1886 38.17C58.3679 39.7216 60.2712 40.4974 62.8986 40.4974C64.9468 40.4974 66.726 39.8768 68.2363 38.6354C69.7465 37.3734 70.9568 35.7391 71.8671 33.7323C72.7774 31.7048 73.336 29.5532 73.5428 27.2775L74.9083 12.7231H76.9564L74.1635 41.9249H72.2084L72.8291 35.5011C71.7119 37.6321 70.2741 39.3285 68.5155 40.5905C66.757 41.8525 64.7813 42.4835 62.5883 42.4835Z" fill="#F1F1F1"/>
<path d="M47.2559 41.9252L51.228 0H53.2141L49.304 41.9252H47.2559Z" fill="#F1F1F1"/>
<path d="M33.8382 42.3911C31.4797 42.3911 29.4729 41.8119 27.8179 40.6533C26.1835 39.4741 24.9939 37.7569 24.2491 35.5019C23.5043 33.2468 23.2871 30.516 23.5974 27.3092C23.9284 24.1025 24.6836 21.3717 25.8628 19.1166C27.042 16.8409 28.5626 15.1134 30.4246 13.9342C32.2866 12.7342 34.3968 12.1343 36.7553 12.1343C39.1551 12.1343 41.1723 12.7446 42.8066 13.9652C44.441 15.1858 45.6203 16.934 46.3444 19.2097C47.0892 21.4648 47.3064 24.1646 46.9961 27.3092C46.7064 30.4953 45.9616 33.2158 44.7617 35.4708C43.5825 37.7052 42.0619 39.4223 40.1999 40.6223C38.3379 41.8015 36.2174 42.3911 33.8382 42.3911ZM33.9313 40.5292C37.1794 40.5292 39.7137 39.3086 41.5343 36.8673C43.3756 34.4054 44.4928 31.2194 44.8858 27.3092C45.2789 23.3784 44.7927 20.1924 43.4273 17.7512C42.0619 15.2892 39.7448 14.0583 36.476 14.0583C33.2486 14.0583 30.766 15.2686 29.0281 17.6891C27.311 20.089 26.2662 23.2957 25.8938 27.3092C25.6663 29.8539 25.7697 32.1297 26.2042 34.1364C26.6593 36.1225 27.5075 37.6845 28.7488 38.8224C30.0108 39.9602 31.7383 40.5292 33.9313 40.5292Z" fill="#F1F1F1"/>
<path d="M10.7367 42.3908C8.58509 42.3908 6.67141 41.9356 4.99564 41.0253C3.34057 40.115 2.05788 38.822 1.14759 37.1463C0.257985 35.4498 -0.114407 33.443 0.030412 31.1259H1.83031C1.6648 33.2361 1.98547 34.9843 2.79232 36.3704C3.59917 37.7359 4.72669 38.76 6.17488 39.4427C7.62308 40.1047 9.20574 40.4357 10.9229 40.4357C13.0124 40.4357 14.8227 40.0323 16.3536 39.2254C17.9052 38.4186 19.1155 37.3945 19.9844 36.1532C20.874 34.8912 21.3706 33.5775 21.474 32.2121C21.6602 30.2466 21.2671 28.6329 20.2948 27.371C19.3224 26.0883 17.8535 25.1263 15.8881 24.4849L10.9539 22.623C8.05753 21.6713 5.91628 20.5231 4.53015 19.1783C3.16471 17.8129 2.60612 15.8371 2.85439 13.2511C3.14402 10.4995 4.28189 8.22379 6.26798 6.42389C8.25407 4.60331 11.0367 3.69301 14.6158 3.69301C17.6777 3.69301 20.0258 4.46883 21.6602 6.02047C23.2946 7.55141 24.1532 9.53751 24.2359 11.9787H22.2498C22.2084 9.95127 21.4843 8.42033 20.0775 7.38591C18.6707 6.33079 16.7674 5.80324 14.3675 5.80324C11.5746 5.80324 9.35056 6.52734 7.69549 7.97553C6.0611 9.40303 5.16115 11.2236 4.99564 13.4373C4.85082 15.2372 5.18184 16.644 5.98869 17.6577C6.79554 18.6715 8.18166 19.5093 10.1471 20.1714L16.5708 22.2816C18.8259 23.0471 20.6258 24.2056 21.9705 25.7573C23.3153 27.3089 23.8635 29.4708 23.6153 32.2431C23.4911 33.9189 22.9015 35.5326 21.8464 37.0842C20.812 38.6358 19.3638 39.9082 17.5018 40.9012C15.6399 41.8942 13.3848 42.3908 10.7367 42.3908Z" fill="#F1F1F1"/>
</svg>
