<svg width="37" height="37" viewBox="0 0 37 37" fill="none" xmlns="http://www.w3.org/2000/svg">
<path d="M34.78 18.8854C34.78 17.6829 34.6721 16.5266 34.4717 15.4166H18.5V21.9764H27.6267C27.2335 24.0962 26.0388 25.8922 24.2427 27.0947V31.3497H29.7233C32.93 28.3974 34.78 24.0499 34.78 18.8854Z" fill="#4285F4"/>
<path d="M18.5 35.4584C23.0788 35.4584 26.9175 33.9399 29.7234 31.3499L24.2427 27.0949C22.7242 28.1124 20.7817 28.7137 18.5 28.7137C14.0831 28.7137 10.3446 25.7305 9.01106 21.7222H3.34544V26.1159C6.13585 31.6582 11.8709 35.4584 18.5 35.4584Z" fill="#34A853"/>
<path d="M9.0111 21.7221C8.67194 20.7046 8.47923 19.6177 8.47923 18.5C8.47923 17.3823 8.67194 16.2954 9.0111 15.2779V10.8841H3.34548C2.1584 13.2473 1.54068 15.8554 1.54173 18.5C1.54173 21.2364 2.19694 23.8264 3.34548 26.1158L9.0111 21.7221Z" fill="#FBBC05"/>
<path d="M18.5 8.28643C20.9898 8.28643 23.2252 9.14205 24.9827 10.8225L29.8467 5.95851C26.9098 3.22205 23.0711 1.54164 18.5 1.54164C11.8709 1.54164 6.13585 5.34184 3.34544 10.8841L9.01106 15.2779C10.3446 11.2696 14.0831 8.28643 18.5 8.28643Z" fill="#EA4335"/>
</svg>
