<svg width="83" height="83" viewBox="0 0 83 83" fill="none" xmlns="http://www.w3.org/2000/svg">
<path d="M74.362 82.8124H8.26245C3.75566 82.8124 0 79.0567 0 74.55V13.8961C0 9.38928 3.00453 5.63362 6.94797 5.63362H11.0792V11.0793H6.94797C6.38462 11.0793 5.63349 12.206 5.63349 13.8961V74.55C5.63349 76.0522 6.94797 77.3667 8.45023 77.3667H74.5498C76.0521 77.3667 77.3666 76.0522 77.3666 74.55V13.8961C77.3666 12.206 76.4277 11.0793 76.0521 11.0793H71.9209V5.63362H76.0521C79.8077 5.63362 83.0001 9.38928 83.0001 13.8961V74.55C82.6245 79.0567 78.8688 82.8124 74.362 82.8124Z" fill="#EEEEEE"/>
<path d="M19.3416 16.7127C17.8393 16.7127 16.5248 15.3982 16.5248 13.8959V2.81674C16.5248 1.31448 17.8393 0 19.3416 0C20.8438 0 22.1583 1.31448 22.1583 2.81674V13.8959C21.9705 15.3982 20.8438 16.7127 19.3416 16.7127ZM63.2828 16.7127C61.7805 16.7127 60.466 15.3982 60.466 13.8959V2.81674C60.466 1.31448 61.7805 0 63.2828 0C64.785 0 66.0995 1.31448 66.0995 2.81674V13.8959C66.0995 15.3982 64.785 16.7127 63.2828 16.7127ZM27.604 5.63349H55.0203V11.267H27.604V5.63349ZM5.44564 22.1584H77.1787V27.7919H5.44564V22.1584ZM66.0995 33.2376H71.5452V38.6833H66.0995V33.2376ZM55.0203 33.2376H60.6538V38.6833H55.0203V33.2376ZM44.1289 33.2376H49.5746V38.6833H44.1289V33.2376ZM33.0497 33.2376H38.4954V38.6833H33.0497V33.2376ZM21.9705 33.2376H27.604V38.6833H21.9705V33.2376ZM66.0995 44.3168H71.5452V49.7625H66.0995V44.3168ZM55.0203 44.3168H60.6538V49.7625H55.0203V44.3168ZM44.1289 44.3168H49.5746V49.7625H44.1289V44.3168ZM33.0497 44.3168H38.4954V49.7625H33.0497V44.3168ZM21.9705 44.3168H27.604V49.7625H21.9705V44.3168ZM11.0791 44.3168H16.5248V49.7625H11.0791V44.3168ZM66.0995 55.2082H71.5452V60.8417H66.0995V55.2082ZM55.0203 55.2082H60.6538V60.8417H55.0203V55.2082ZM44.1289 55.2082H49.5746V60.8417H44.1289V55.2082ZM33.0497 55.2082H38.4954V60.8417H33.0497V55.2082ZM21.9705 55.2082H27.604V60.8417H21.9705V55.2082ZM11.0791 55.2082H16.5248V60.8417H11.0791V55.2082ZM55.0203 66.2874H60.6538V71.7331H55.0203V66.2874ZM44.1289 66.2874H49.5746V71.7331H44.1289V66.2874ZM33.0497 66.2874H38.4954V71.7331H33.0497V66.2874ZM21.9705 66.2874H27.604V71.7331H21.9705V66.2874ZM11.0791 66.2874H16.5248V71.7331H11.0791V66.2874Z" fill="#EEEEEE"/>
</svg>
