<svg width="5" height="4" viewBox="0 0 5 4" fill="none" xmlns="http://www.w3.org/2000/svg">
<path fill-rule="evenodd" clip-rule="evenodd" d="M0.346631 0.356374C0.568645 0.137532 0.869722 0.0145937 1.18365 0.0145937C1.49758 0.0145937 1.79866 0.137532 2.02067 0.356374L2.36755 0.698112L2.71444 0.356374C2.82365 0.244882 2.95429 0.155951 3.09873 0.0947723C3.24317 0.0335933 3.39852 0.00139097 3.55572 4.40748e-05C3.71292 -0.00130282 3.86881 0.0282328 4.01431 0.0869276C4.15981 0.145622 4.29199 0.232301 4.40315 0.341905C4.51431 0.451509 4.60222 0.581845 4.66175 0.725306C4.72128 0.868767 4.75123 1.02248 4.74986 1.17748C4.7485 1.33248 4.71584 1.48566 4.65379 1.62808C4.59174 1.7705 4.50155 1.89931 4.38848 2.00699L2.36755 3.99992L0.346631 2.00699C0.124683 1.78808 0 1.49122 0 1.18168C0 0.872145 0.124683 0.575282 0.346631 0.356374Z" fill="#001B1B"/>
</svg>
