<svg width="90" height="24" viewBox="0 0 90 24" fill="none" xmlns="http://www.w3.org/2000/svg">
<path d="M78.8576 19.132C78.8576 19.3531 78.7301 19.4636 78.4751 19.4636C78.101 19.4636 77.7184 19.4551 77.3273 19.4381C76.9362 19.4041 76.5451 19.3871 76.154 19.3871C75.5759 19.3871 74.9808 19.4041 74.3687 19.4381C73.7735 19.4551 73.1784 19.4636 72.5833 19.4636C72.5153 19.4636 72.4727 19.4126 72.4557 19.3106C72.4387 19.1915 72.4302 19.098 72.4302 19.03C72.4302 18.894 72.5152 18.826 72.6853 18.826C72.8553 18.826 72.9914 18.826 73.0934 18.826C73.1784 18.826 73.2634 18.8345 73.3484 18.8515C73.4505 18.8515 73.544 18.8515 73.629 18.8515C74.1221 18.8515 74.3942 18.6049 74.4452 18.1118C74.4962 17.1086 74.5132 16.0969 74.4962 15.0766C74.4962 14.0564 74.4962 13.0447 74.4962 12.0415C74.4962 11.8544 74.4962 11.6674 74.4962 11.4804C74.4962 11.2763 74.4962 11.0808 74.4962 10.8937C74.4792 10.5026 74.4537 10.0265 74.4197 9.46541C74.3857 8.88728 74.3091 8.41968 74.1901 8.0626C73.9181 7.17841 73.3229 6.73631 72.4047 6.73631C71.5715 6.73631 70.8064 6.94886 70.1092 7.37395C69.4121 7.79905 68.8084 8.33466 68.2983 8.9808C68.2813 10.2221 68.2728 11.4548 68.2728 12.6791C68.2728 13.9034 68.2728 15.1277 68.2728 16.3519V18.1118C68.2728 18.3669 68.3833 18.5539 68.6044 18.6729C68.8254 18.792 69.0465 18.8515 69.2675 18.8515C69.4036 18.8515 69.5311 18.843 69.6501 18.826C69.7862 18.792 69.9137 18.775 70.0327 18.775C70.1007 18.775 70.1432 18.8175 70.1602 18.9025C70.1772 18.9875 70.1857 19.0555 70.1857 19.1065C70.1857 19.1745 70.1602 19.2511 70.1092 19.3361C70.0752 19.4211 70.0072 19.4636 69.9052 19.4636C69.5311 19.4636 69.157 19.4551 68.7829 19.4381C68.4259 19.4041 68.0603 19.3871 67.6862 19.3871C67.1081 19.3871 66.5299 19.4041 65.9518 19.4381C65.3737 19.4551 64.7871 19.4636 64.1919 19.4636C64.1069 19.4636 64.0559 19.4126 64.0389 19.3106C64.0389 19.1915 64.0389 19.098 64.0389 19.03C64.0389 18.894 64.1154 18.826 64.2684 18.826C64.4215 18.826 64.5405 18.826 64.6255 18.826C64.7105 18.826 64.7956 18.8345 64.8806 18.8515C64.9656 18.8515 65.0506 18.8515 65.1356 18.8515C65.6287 18.8515 65.9008 18.6049 65.9518 18.1118C65.9688 17.8738 65.9773 17.6357 65.9773 17.3977C65.9773 17.1596 65.9773 16.9215 65.9773 16.6835C65.9773 15.2212 65.9773 13.7589 65.9773 12.2965C65.9773 10.8172 65.9688 9.34639 65.9518 7.88406C65.9518 7.64601 65.9008 7.40796 65.7988 7.16991C65.6968 6.93186 65.5012 6.81283 65.2121 6.81283C64.9911 6.81283 64.7786 6.84684 64.5745 6.91485C64.3705 6.98287 64.1579 7.01687 63.9369 7.01687C63.8178 7.01687 63.7583 6.93186 63.7583 6.76182C63.7583 6.72781 63.7583 6.6938 63.7583 6.6598C63.7753 6.60878 63.7923 6.57478 63.8093 6.55777C63.8263 6.54077 63.8519 6.53227 63.8859 6.53227C63.9199 6.51526 63.9454 6.49826 63.9624 6.48126C64.2684 6.39624 64.583 6.33673 64.9061 6.30272C65.2462 6.26871 65.5692 6.2177 65.8753 6.14968C66.1644 6.09867 66.4449 6.03066 66.717 5.94564C66.989 5.84362 67.2611 5.79261 67.5332 5.79261C67.6522 5.79261 67.7457 5.85212 67.8137 5.97114C67.8987 6.12418 67.9668 6.34523 68.0178 6.63429C68.0688 6.90635 68.1028 7.18691 68.1198 7.47597C68.1538 7.76504 68.1708 8.00309 68.1708 8.19013C68.5449 7.81605 68.987 7.45047 69.4971 7.09339C70.0242 6.71931 70.5683 6.41324 71.1294 6.17519C71.7076 5.92013 72.2687 5.79261 72.8128 5.79261C74.3772 5.79261 75.4314 6.14118 75.9755 6.83834C76.5366 7.51848 76.8172 8.59822 76.8172 10.0775C76.8172 11.4038 76.8087 12.7301 76.7917 14.0564C76.7917 15.3827 76.7917 16.709 76.7917 18.0353C76.7917 18.3584 76.8852 18.5794 77.0722 18.6984C77.2763 18.8005 77.5143 18.8515 77.7864 18.8515C77.9224 18.8515 78.0585 18.843 78.1945 18.826C78.3305 18.792 78.4581 18.775 78.5771 18.775C78.6791 18.775 78.7471 18.8175 78.7811 18.9025C78.8321 18.9705 78.8576 19.047 78.8576 19.132Z" fill="#001B1B"/>
<path d="M86.7097 20.3308C86.7097 19.6506 86.5142 19.166 86.1231 18.877C85.749 18.5709 85.2899 18.3754 84.7458 18.2903C84.2017 18.1883 83.6746 18.1118 83.1645 18.0608L80.3078 17.7802C79.9337 18.1883 79.6532 18.5964 79.4661 19.0045C79.2961 19.3956 79.2111 19.8717 79.2111 20.4328C79.2111 21.249 79.4066 21.8356 79.7977 22.1927C80.2058 22.5668 80.7159 22.8048 81.3281 22.9068C81.9402 23.0089 82.5608 23.0599 83.19 23.0599C83.8021 23.0599 84.3717 22.9749 84.8988 22.8048C85.443 22.6348 85.8766 22.3457 86.1996 21.9376C86.5397 21.5465 86.7097 21.0109 86.7097 20.3308ZM85.46 10.1285C85.46 9.60143 85.4004 9.04031 85.2814 8.44518C85.1624 7.85004 84.9243 7.33993 84.5673 6.91484C84.2272 6.48975 83.7256 6.2772 83.0624 6.2772C82.3143 6.2772 81.7361 6.47274 81.3281 6.86383C80.92 7.23791 80.6394 7.72252 80.4864 8.31765C80.3503 8.89577 80.2823 9.49941 80.2823 10.1285C80.2823 10.7917 80.3418 11.4208 80.4609 12.016C80.5969 12.5941 80.8605 13.0702 81.2515 13.4443C81.6596 13.8184 82.2633 14.0054 83.0624 14.0054C83.5555 14.0054 83.9551 13.8779 84.2612 13.6228C84.5843 13.3678 84.8308 13.0447 85.0009 12.6536C85.1709 12.2455 85.2899 11.8204 85.3579 11.3783C85.4259 10.9362 85.46 10.5196 85.46 10.1285ZM90 5.94563C90 6.30271 89.9234 6.54926 89.7704 6.68529C89.6344 6.80432 89.4473 6.87233 89.2093 6.88933C88.9882 6.88933 88.7502 6.88933 88.4951 6.88933C88.121 6.88933 87.7385 6.88933 87.3474 6.88933C86.9733 6.87233 86.5907 6.85533 86.1996 6.83832C86.7437 7.26342 87.1433 7.77353 87.3984 8.36866C87.6704 8.96379 87.8065 9.60143 87.8065 10.2816C87.8065 11.1148 87.5684 11.8544 87.0923 12.5006C86.6332 13.1297 86.0381 13.6228 85.3069 13.9799C84.5758 14.337 83.8191 14.5155 83.0369 14.5155C82.7649 14.5155 82.5013 14.507 82.2463 14.49C81.9912 14.456 81.7276 14.4305 81.4556 14.4135C81.2345 14.6175 80.9795 14.8386 80.6904 15.0766C80.4184 15.3147 80.2823 15.6037 80.2823 15.9438C80.2823 16.2159 80.4099 16.4199 80.6649 16.556C80.937 16.675 81.2345 16.76 81.5576 16.811C81.8807 16.862 82.1357 16.896 82.3228 16.913L85.562 17.1426C86.1401 17.1936 86.7012 17.3211 87.2453 17.5252C87.8065 17.7122 88.2741 18.0098 88.6482 18.4179C89.0222 18.8089 89.2093 19.3446 89.2093 20.0247C89.2093 20.7389 88.9967 21.334 88.5716 21.8101C88.1635 22.2862 87.6279 22.6688 86.9648 22.9579C86.3186 23.2469 85.647 23.451 84.9498 23.57C84.2527 23.689 83.6236 23.7485 83.0624 23.7485C82.6203 23.7485 82.0677 23.723 81.4046 23.672C80.7414 23.638 80.0868 23.536 79.4406 23.3659C78.7945 23.1959 78.2504 22.9238 77.8083 22.5498C77.3832 22.1927 77.1706 21.6996 77.1706 21.0704C77.1706 20.6113 77.2812 20.1777 77.5022 19.7697C77.7233 19.3786 77.9953 19.013 78.3184 18.6729C78.6585 18.3328 78.99 18.0353 79.3131 17.7802C79.1261 17.6952 78.871 17.5677 78.5479 17.3976C78.2419 17.2106 78.0888 16.998 78.0888 16.76C78.0888 16.4709 78.2419 16.1479 78.5479 15.7908C78.871 15.4337 79.2196 15.0936 79.5937 14.7706C79.9678 14.4305 80.2568 14.1669 80.4609 13.9799C79.5937 13.5718 78.9475 13.0532 78.5224 12.424C78.1143 11.7779 77.9103 10.9787 77.9103 10.0265C77.9103 9.14233 78.1569 8.38566 78.65 7.75652C79.1601 7.11038 79.7977 6.61727 80.5629 6.2772C81.3451 5.92012 82.1357 5.74158 82.9349 5.74158C83.224 5.74158 83.513 5.76709 83.8021 5.8181C84.0912 5.85211 84.3717 5.91162 84.6438 5.99664C84.7798 6.03065 84.9243 6.08166 85.0774 6.14967C85.2474 6.20068 85.4004 6.23469 85.5365 6.25169C85.6555 6.2687 85.766 6.2772 85.868 6.2772C85.9871 6.2772 86.1061 6.2772 86.2251 6.2772C86.8373 6.2772 87.4239 6.23469 87.985 6.14967C88.5461 6.04765 89.0477 5.75859 89.4898 5.28248C89.5919 5.18046 89.6769 5.12945 89.7449 5.12945C89.8809 5.12945 89.9574 5.24847 89.9744 5.48653C89.9914 5.70758 90 5.86061 90 5.94563Z" fill="#001B1B"/>
<path d="M65.4996 19.1324C65.4996 19.2174 65.4741 19.3024 65.4231 19.3874C65.372 19.4554 65.304 19.4894 65.219 19.4894C64.7429 19.4894 64.2668 19.4809 63.7907 19.4639C63.3316 19.4299 62.8555 19.4129 62.3624 19.4129H61.6737C61.1636 19.4129 60.6535 19.4299 60.1434 19.4639C59.6503 19.4809 59.1572 19.4894 58.6641 19.4894C58.5961 19.4894 58.545 19.4469 58.511 19.3619C58.494 19.2769 58.4855 19.2089 58.4855 19.1579C58.4855 19.0729 58.494 19.0133 58.511 18.9793C58.528 18.9283 58.5791 18.8943 58.6641 18.8773C58.7491 18.8433 58.8426 18.8348 58.9446 18.8518C59.0637 18.8518 59.1742 18.8518 59.2762 18.8518C59.3952 18.8518 59.5058 18.8603 59.6078 18.8773C59.7098 18.8773 59.8203 18.8773 59.9394 18.8773C60.1774 18.8773 60.39 18.8263 60.577 18.7243C60.781 18.6052 60.8831 18.4097 60.8831 18.1376V7.93541C60.8831 7.64635 60.832 7.4253 60.73 7.27227C60.628 7.10223 60.4155 7.01721 60.0924 7.01721C59.8543 7.01721 59.6078 7.03421 59.3527 7.06822C59.1147 7.08523 58.8766 7.11073 58.6386 7.14474C58.5025 7.14474 58.4345 7.06822 58.4345 6.91519C58.4345 6.74515 58.5025 6.63463 58.6386 6.58361C58.8426 6.5156 59.0552 6.47309 59.2762 6.45609C59.5143 6.42208 59.7353 6.38807 59.9394 6.35406C60.4155 6.26905 60.8916 6.17553 61.3677 6.0735C61.8438 5.97148 62.3114 5.86096 62.7705 5.74193C62.8215 5.72493 62.8895 5.71643 62.9745 5.71643C63.1616 5.71643 63.2551 5.81845 63.2551 6.02249C63.2551 8.02893 63.2466 10.0439 63.2296 12.0673C63.2296 14.0908 63.2296 16.1142 63.2296 18.1376C63.2296 18.4097 63.3486 18.6052 63.5867 18.7243C63.8417 18.8263 64.0798 18.8773 64.3008 18.8773C64.4709 18.8773 64.6409 18.8688 64.8109 18.8518C64.998 18.8348 65.1765 18.8263 65.3465 18.8263C65.4146 18.8263 65.4571 18.8688 65.4741 18.9538C65.4911 19.0388 65.4996 19.0984 65.4996 19.1324Z" fill="#001B1B"/>
<path d="M60.0966 19.132C60.0966 19.3531 59.9691 19.4636 59.714 19.4636C59.34 19.4636 58.9574 19.4551 58.5663 19.4381C58.1752 19.4041 57.7841 19.3871 57.393 19.3871C56.8149 19.3871 56.2198 19.4041 55.6076 19.4381C55.0125 19.4551 54.4174 19.4636 53.8222 19.4636C53.7542 19.4636 53.7117 19.4126 53.6947 19.3106C53.6777 19.1915 53.6692 19.098 53.6692 19.03C53.6692 18.894 53.7542 18.826 53.9243 18.826C54.0943 18.826 54.2303 18.826 54.3324 18.826C54.4174 18.826 54.5024 18.8345 54.5874 18.8515C54.6894 18.8515 54.783 18.8515 54.868 18.8515C55.3611 18.8515 55.6331 18.6049 55.6842 18.1118C55.7352 17.1086 55.7522 16.0969 55.7352 15.0766C55.7352 14.0564 55.7352 13.0447 55.7352 12.0415C55.7352 11.8544 55.7352 11.6674 55.7352 11.4804C55.7352 11.2763 55.7352 11.0808 55.7352 10.8937C55.7182 10.5026 55.6927 10.0265 55.6587 9.46541C55.6246 8.88728 55.5481 8.41968 55.4291 8.0626C55.157 7.17841 54.5619 6.73631 53.6437 6.73631C52.8105 6.73631 52.0454 6.94886 51.3482 7.37395C50.6511 7.79905 50.0474 8.33466 49.5373 8.9808C49.5203 10.2221 49.5118 11.4548 49.5118 12.6791C49.5118 13.9034 49.5118 15.1277 49.5118 16.3519V18.1118C49.5118 18.3669 49.6223 18.5539 49.8434 18.6729C50.0644 18.792 50.2855 18.8515 50.5065 18.8515C50.6426 18.8515 50.7701 18.843 50.8891 18.826C51.0251 18.792 51.1527 18.775 51.2717 18.775C51.3397 18.775 51.3822 18.8175 51.3992 18.9025C51.4162 18.9875 51.4247 19.0555 51.4247 19.1065C51.4247 19.1745 51.3992 19.2511 51.3482 19.3361C51.3142 19.4211 51.2462 19.4636 51.1442 19.4636C50.7701 19.4636 50.396 19.4551 50.0219 19.4381C49.6648 19.4041 49.2993 19.3871 48.9252 19.3871C48.347 19.3871 47.7689 19.4041 47.1908 19.4381C46.6127 19.4551 46.026 19.4636 45.4309 19.4636C45.3459 19.4636 45.2949 19.4126 45.2779 19.3106C45.2779 19.1915 45.2779 19.098 45.2779 19.03C45.2779 18.894 45.3544 18.826 45.5074 18.826C45.6605 18.826 45.7795 18.826 45.8645 18.826C45.9495 18.826 46.0345 18.8345 46.1196 18.8515C46.2046 18.8515 46.2896 18.8515 46.3746 18.8515C46.8677 18.8515 47.1398 18.6049 47.1908 18.1118C47.2078 17.8738 47.2163 17.6357 47.2163 17.3977C47.2163 17.1596 47.2163 16.9215 47.2163 16.6835C47.2163 15.2212 47.2163 13.7589 47.2163 12.2965C47.2163 10.8172 47.2078 9.34639 47.1908 7.88406C47.1908 7.64601 47.1398 7.40796 47.0378 7.16991C46.9357 6.93186 46.7402 6.81283 46.4511 6.81283C46.2301 6.81283 46.0175 6.84684 45.8135 6.91485C45.6094 6.98287 45.3969 7.01687 45.1759 7.01687C45.0568 7.01687 44.9973 6.93186 44.9973 6.76182C44.9973 6.72781 44.9973 6.6938 44.9973 6.6598C45.0143 6.60878 45.0313 6.57478 45.0483 6.55777C45.0653 6.54077 45.0908 6.53227 45.1248 6.53227C45.1589 6.51526 45.1844 6.49826 45.2014 6.48126C45.5074 6.39624 45.822 6.33673 46.1451 6.30272C46.4851 6.26871 46.8082 6.2177 47.1143 6.14968C47.4033 6.09867 47.6839 6.03066 47.956 5.94564C48.228 5.84362 48.5001 5.79261 48.7721 5.79261C48.8912 5.79261 48.9847 5.85212 49.0527 5.97114C49.1377 6.12418 49.2057 6.34523 49.2567 6.63429C49.3078 6.90635 49.3418 7.18691 49.3588 7.47597C49.3928 7.76504 49.4098 8.00309 49.4098 8.19013C49.7839 7.81605 50.226 7.45047 50.7361 7.09339C51.2632 6.71931 51.8073 6.41324 52.3684 6.17519C52.9466 5.92013 53.5077 5.79261 54.0518 5.79261C55.6161 5.79261 56.6704 6.14118 57.2145 6.83834C57.7756 7.51848 58.0562 8.59822 58.0562 10.0775C58.0562 11.4038 58.0477 12.7301 58.0307 14.0564C58.0307 15.3827 58.0307 16.709 58.0307 18.0353C58.0307 18.3584 58.1242 18.5794 58.3112 18.6984C58.5153 18.8005 58.7533 18.8515 59.0254 18.8515C59.1614 18.8515 59.2974 18.843 59.4335 18.826C59.5695 18.792 59.697 18.775 59.8161 18.775C59.9181 18.775 59.9861 18.8175 60.0201 18.9025C60.0711 18.9705 60.0966 19.047 60.0966 19.132Z" fill="#001B1B"/>
<path d="M33.115 10.5622C33.098 9.865 33.0384 9.20185 32.9364 8.57271C32.8344 7.92657 32.5878 7.39946 32.1968 6.99137C31.8057 6.56628 31.168 6.35373 30.2838 6.35373C29.4847 6.35373 28.83 6.57478 28.3199 7.01687C27.8268 7.44197 27.4442 7.98609 27.1722 8.64923C26.9001 9.29537 26.696 9.95852 26.56 10.6387C26.9851 10.6557 27.4017 10.6727 27.8098 10.6897C28.2179 10.6897 28.626 10.6897 29.0341 10.6897C29.7142 10.6897 30.3944 10.6812 31.0745 10.6642C31.7547 10.6302 32.4348 10.5962 33.115 10.5622ZM36.0481 16.4029C36.0481 16.4879 36.0311 16.539 35.9971 16.556C35.9461 16.726 35.8185 16.93 35.6145 17.1681C35.4275 17.4062 35.2149 17.6357 34.9769 17.8567C34.7388 18.0608 34.5433 18.2138 34.3902 18.3159C33.8291 18.7069 33.1915 19.0215 32.4773 19.2596C31.7802 19.4976 31.083 19.6166 30.3859 19.6166C29.8077 19.6166 29.1616 19.5231 28.4474 19.3361C27.7503 19.149 27.1551 18.894 26.662 18.5709C25.7098 17.9418 25.0127 17.1171 24.5706 16.0969C24.1285 15.0766 23.9074 14.0139 23.9074 12.9087C23.9074 11.6504 24.154 10.4856 24.6471 9.4144C25.1402 8.34316 25.9309 7.47597 27.0191 6.81283C27.5122 6.52377 28.0648 6.28571 28.677 6.09867C29.2891 5.89463 29.8757 5.79261 30.4369 5.79261C31.4401 5.79261 32.3243 5.99665 33.0894 6.40474C33.8546 6.81283 34.4497 7.39096 34.8748 8.13912C35.3169 8.87028 35.538 9.74597 35.538 10.7662C35.538 11.0553 35.47 11.2423 35.3339 11.3273C35.2149 11.4123 35.0279 11.4548 34.7728 11.4548C34.4327 11.4548 34.0927 11.4463 33.7526 11.4293C33.4125 11.4123 33.0724 11.3953 32.7324 11.3783C32.2563 11.3443 31.7802 11.3273 31.3041 11.3273C30.845 11.3273 30.3774 11.3273 29.9013 11.3273C29.3231 11.3273 28.745 11.3273 28.1669 11.3273C27.5887 11.3273 27.0106 11.3443 26.4325 11.3783C26.4155 11.6504 26.3985 11.9139 26.3815 12.169C26.3645 12.4241 26.356 12.6876 26.356 12.9597C26.356 13.5888 26.4325 14.2435 26.5855 14.9236C26.7386 15.5868 26.9851 16.2074 27.3252 16.7855C27.6653 17.3466 28.0989 17.8057 28.626 18.1628C29.1531 18.5029 29.7907 18.6729 30.5389 18.6729C31.3041 18.6729 32.0352 18.5539 32.7324 18.3159C33.4295 18.0778 34.0672 17.6952 34.6453 17.1681C34.7983 17.0151 34.9344 16.8535 35.0534 16.6835C35.1894 16.4965 35.3339 16.3349 35.487 16.1989C35.572 16.1139 35.6655 16.0714 35.7675 16.0714C35.8526 16.0714 35.9206 16.1054 35.9716 16.1734C36.0226 16.2414 36.0481 16.3179 36.0481 16.4029Z" fill="#001B1B"/>
<path d="M42.7796 16.5305C42.7116 15.7653 42.6691 15.0001 42.6521 14.235C42.6521 13.4528 42.6435 12.6706 42.6265 11.8884H42.2695C41.7424 11.8884 41.1557 11.9735 40.5096 12.1435C39.8804 12.2965 39.2768 12.5346 38.6987 12.8577C38.1206 13.1807 37.6445 13.5888 37.2704 14.0819C36.9133 14.558 36.7348 15.1106 36.7348 15.7398C36.7348 16.556 36.9643 17.1766 37.4234 17.6017C37.8825 18.0098 38.5031 18.2138 39.2853 18.2138C39.6594 18.2138 40.0675 18.1288 40.5096 17.9588C40.9517 17.7717 41.3768 17.5507 41.7849 17.2956C42.1929 17.0406 42.5245 16.7855 42.7796 16.5305ZM47.2431 18.1628C47.2431 18.2308 47.2346 18.2818 47.2175 18.3159C47.0475 18.6899 46.7585 18.979 46.3504 19.183C45.9593 19.3701 45.5682 19.4636 45.1771 19.4636C44.4629 19.4636 43.9443 19.2596 43.6213 18.8515C43.3152 18.4264 43.0686 17.9078 42.8816 17.2956C42.2355 17.8908 41.5213 18.3924 40.7391 18.8005C39.957 19.1915 39.1153 19.3871 38.2141 19.3871C37.5849 19.3871 36.9898 19.2681 36.4287 19.03C35.8846 18.775 35.4425 18.4094 35.1024 17.9333C34.7623 17.4572 34.5923 16.879 34.5923 16.1989C34.5923 15.4847 34.7708 14.8726 35.1279 14.3625C35.502 13.8354 35.9696 13.3933 36.5307 13.0362C37.1088 12.6621 37.721 12.3645 38.3671 12.1435C39.0303 11.9054 39.6509 11.7269 40.229 11.6079C40.6201 11.5229 41.0197 11.4463 41.4278 11.3783C41.8359 11.3103 42.2355 11.2423 42.6265 11.1743C42.6265 10.6982 42.601 10.1456 42.55 9.51642C42.516 8.88728 42.3885 8.36867 42.1674 7.96058C41.9464 7.5695 41.6488 7.22092 41.2747 6.91485C40.9007 6.60878 40.4841 6.45575 40.025 6.45575C39.2428 6.45575 38.6307 6.6598 38.1886 7.06789C37.7465 7.47598 37.4319 8.0541 37.2449 8.80227C37.2279 8.88728 37.2109 8.9808 37.1939 9.08283C37.1939 9.16785 37.1854 9.25286 37.1683 9.33788C37.1513 9.43991 37.0833 9.53343 36.9643 9.61844C36.8623 9.68646 36.7518 9.72047 36.6327 9.72047C36.3097 9.72047 36.0121 9.64395 35.74 9.49092C35.485 9.33788 35.3575 9.08283 35.3575 8.72575C35.3575 8.5217 35.3915 8.34316 35.4595 8.19013C35.6805 7.66302 36.0376 7.22942 36.5307 6.88935C37.0238 6.53227 37.5679 6.26021 38.1631 6.07317C38.7752 5.88613 39.3448 5.79261 39.8719 5.79261C40.7901 5.79261 41.6233 5.96264 42.3715 6.30272C43.1197 6.64279 43.7148 7.1444 44.1569 7.80755C44.616 8.45369 44.8455 9.26987 44.8455 10.2561C44.8455 11.3613 44.837 12.4751 44.82 13.5973C44.82 14.7196 44.854 15.8418 44.922 16.9641C44.9391 17.3381 45.0156 17.6697 45.1516 17.9588C45.2876 18.2308 45.5682 18.3669 45.9933 18.3669C46.2143 18.3669 46.4439 18.3159 46.6819 18.2138C46.937 18.0948 47.0985 18.0353 47.1665 18.0353C47.2176 18.0353 47.2431 18.0778 47.2431 18.1628Z" fill="#001B1B"/>
<path d="M20.9879 9.19634C20.9879 9.29836 20.9794 9.40038 20.9624 9.5024C20.9454 9.60442 20.9114 9.69794 20.8604 9.78296C20.6393 10.3101 15.754 16.4769 15.2778 16.9871C14.8187 17.4802 14.3426 17.8883 13.8495 18.2113C13.0844 18.7214 12.2682 19.0785 11.401 19.2826C10.5508 19.4866 9.67512 19.5886 8.77392 19.5886C6.95452 19.5886 5.38168 19.206 4.05539 18.4409C2.7461 17.6587 1.74288 16.579 1.04573 15.2017C0.348576 13.8244 0 12.243 0 10.4576C0 9.13133 0.195543 7.89006 0.586629 6.73381C0.977714 5.57756 1.54734 4.56583 2.2955 3.69864C3.04367 2.81445 3.96187 2.1258 5.05011 1.63269C6.13835 1.12258 7.37962 0.867523 8.77392 0.867523C9.45407 0.867523 10.1002 0.978047 10.7123 1.19909C11.3415 1.40314 11.9706 1.61569 12.5998 1.83674C12.9568 1.95576 13.3224 2.04928 13.6965 2.1173C14.0876 2.18531 14.4702 2.23632 14.8443 2.27033C14.8613 2.64441 14.8868 3.01849 14.9208 3.39258C14.9548 3.74965 14.9973 4.11523 15.0483 4.48932C15.0993 4.82939 15.1588 5.17797 15.2268 5.53505C15.3119 5.87512 15.3544 6.2237 15.3544 6.58077C15.3544 6.85283 15.2949 7.07388 15.1758 7.24392C15.0738 7.41396 14.8698 7.49898 14.5637 7.49898C14.3937 7.49898 14.2661 7.40546 14.1811 7.21841C14.1131 7.04838 14.0536 6.86984 14.0026 6.6828C13.9686 6.47875 13.9261 6.29171 13.875 6.12167C13.739 5.56055 13.5095 4.97392 13.1864 4.36179C12.8633 3.73265 12.4722 3.23104 12.0131 2.85696C11.8091 2.66992 11.503 2.48288 11.0949 2.29584C10.7038 2.10879 10.2958 1.95576 9.87066 1.83674C9.46257 1.71771 9.114 1.6582 8.82493 1.6582C8.31482 1.6582 7.79621 1.75172 7.26909 1.93876C6.74198 2.1258 6.27438 2.37235 5.86629 2.67842C5.10112 3.27355 4.48898 3.99621 4.02988 4.84639C3.57078 5.67958 3.23921 6.57227 3.03517 7.52448C2.84812 8.47669 2.7546 9.4204 2.7546 10.3556C2.7546 11.3758 2.87363 12.379 3.11168 13.3653C3.34973 14.3345 3.72382 15.2102 4.23393 15.9923C4.74404 16.7745 5.40719 17.4036 6.22336 17.8798C7.03954 18.3389 8.03426 18.5684 9.20752 18.5684C9.70063 18.5684 10.2532 18.5004 10.8654 18.3644C11.4775 18.2113 12.1167 18.0437 12.4678 17.7803C12.9014 17.4551 13.0099 17.4551 13.6603 16.8046C14.3108 16.1541 19.0388 10.5081 19.3959 10.066C19.4299 10.032 19.7381 10.0295 19.8402 9.85948C19.9592 9.68944 20.0782 9.51941 20.1972 9.34937C20.3163 9.17933 20.3928 9.07731 20.4268 9.0433C20.5118 8.94128 20.6053 8.89027 20.7074 8.89027C20.8944 8.89027 20.9879 8.99229 20.9879 9.19634Z" fill="#001B1B"/>
<path d="M23.7998 19.2312C23.7998 19.3162 23.7742 19.4012 23.7232 19.4863C23.6892 19.5543 23.6212 19.5883 23.5192 19.5883C22.9921 19.5883 22.4565 19.5798 21.9123 19.5628C21.3682 19.5288 20.8241 19.5118 20.28 19.5118H19.3873C19.0302 19.5118 18.6731 19.5288 18.3161 19.5628C17.959 19.5798 17.6019 19.5883 17.2448 19.5883C17.1768 19.5883 17.1258 19.5628 17.0918 19.5118C17.0748 19.4438 17.0663 19.3842 17.0663 19.3332C17.0663 19.2822 17.0663 19.2312 17.0663 19.1802C17.0663 19.1292 17.0748 19.0782 17.0918 19.0272C17.1258 18.9592 17.2193 18.9251 17.3723 18.9251C17.5424 18.9081 17.7124 18.9081 17.8825 18.9251C18.0695 18.9251 18.1885 18.9251 18.2395 18.9251C18.4776 18.9251 18.6901 18.8741 18.8772 18.7721C19.0642 18.6531 19.1577 18.4575 19.1577 18.1855C19.1577 16.8762 19.1662 15.5754 19.1832 14.2831C19.2002 12.9738 19.2087 11.6731 19.2087 10.3808C19.2087 9.05448 19.2002 7.72819 19.1832 6.4019C19.1832 5.05861 19.1832 3.72381 19.1832 2.39752C19.1832 2.2785 19.1747 2.15097 19.1577 2.01494C19.1407 1.86191 19.0897 1.74288 19.0047 1.65786C18.9367 1.57284 18.8687 1.53034 18.8007 1.53034C18.7326 1.51333 18.6476 1.50483 18.5456 1.50483C18.2395 1.50483 17.9335 1.55584 17.6274 1.65786C17.3383 1.75989 17.0493 1.8109 16.7602 1.8109C16.5732 1.8109 16.4796 1.70037 16.4796 1.47932C16.4796 1.34329 16.5817 1.24977 16.7857 1.19876C17.0068 1.14775 17.1768 1.11374 17.2958 1.09674C17.891 0.96071 18.5371 0.807676 19.2343 0.637639C19.9314 0.467602 20.5605 0.272059 21.1217 0.0510104C21.1557 0.0510104 21.1897 0.0425087 21.2237 0.0255052C21.2577 0.00850169 21.2832 0 21.3002 0C21.4022 0 21.4617 0.0340074 21.4787 0.102022C21.5128 0.170036 21.5298 0.246553 21.5298 0.331573C21.5298 0.807677 21.5213 1.28378 21.5042 1.75989C21.5042 2.21899 21.5042 2.68659 21.5042 3.16269V10.3043C21.5042 11.6135 21.5128 12.9313 21.5298 14.2576C21.5468 15.5669 21.5553 16.8762 21.5553 18.1855C21.5553 18.4575 21.6658 18.6531 21.8868 18.7721C22.1249 18.8741 22.3544 18.9251 22.5755 18.9251C22.7625 18.9251 22.9411 18.9166 23.1111 18.8996C23.2811 18.8826 23.4512 18.8741 23.6212 18.8741C23.7062 18.8741 23.7572 18.9251 23.7742 19.0272C23.7913 19.1122 23.7998 19.1802 23.7998 19.2312Z" fill="#001B1B"/>
</svg>
