<svg width="189" height="188" viewBox="0 0 189 188" fill="none" xmlns="http://www.w3.org/2000/svg">
<circle cx="93.9203" cy="93.9203" r="85.8037" fill="#539B9B"/>
<path d="M138.526 91.0002L138.486 80.5001C138.465 77.1461 137.12 73.9362 134.744 71.5693C132.368 69.2023 129.152 67.8699 125.799 67.8622H125.751L112.451 67.9105L112.699 43.0331C112.71 41.7959 112.23 40.6048 111.364 39.7211C110.498 38.8374 109.317 38.3332 108.08 38.3192L101.849 38.2638H101.801C100.573 38.2653 99.3944 38.7509 98.5214 39.6155C97.6485 40.48 97.1515 41.6537 97.1382 42.8822L96.8884 67.9718L83.138 68.0213C79.777 68.0415 76.5607 69.3918 74.1924 71.7768C71.8242 74.1619 70.4967 77.3876 70.5002 80.7487L70.539 91.2489C70.5399 91.7678 70.7264 92.2694 71.0646 92.663C69.5091 103.014 64.0323 112.371 55.7681 118.795L55.7245 118.83C55.2901 119.172 55.0019 119.667 54.9181 120.214C54.8343 120.761 54.9612 121.319 55.2732 121.776C55.8624 122.644 56.4729 123.482 57.0845 124.265C60.7513 128.981 65.3169 132.923 70.5172 135.862C75.7175 138.802 81.4491 140.681 87.3805 141.391C89.2456 141.62 91.1228 141.735 93.0018 141.736C102.04 141.712 110.868 138.999 118.358 133.94C125.849 128.882 131.664 121.708 135.062 113.332C137.769 106.619 138.845 99.359 138.201 92.1492C138.414 91.8041 138.527 91.4061 138.526 91.0002ZM101.509 42.9188C101.512 42.8415 101.544 42.7682 101.599 42.7139C101.654 42.6595 101.728 42.6283 101.805 42.6265L108.038 42.6878C108.116 42.6902 108.189 42.7226 108.244 42.7781C108.298 42.8337 108.329 42.9081 108.33 42.9859L108.083 67.9235L101.258 67.9494L101.509 42.9188ZM77.2905 74.8552C78.056 74.0771 78.9683 73.4585 79.9744 73.0351C80.9805 72.6117 82.0606 72.392 83.1522 72.3887L125.77 72.2308H125.799C127.996 72.2391 130.102 73.1136 131.658 74.6646C133.215 76.2156 134.097 78.3179 134.114 80.5154L134.144 88.8306L74.897 89.0557L74.8652 80.7405C74.8597 79.6482 75.071 78.5656 75.4869 77.5556C75.9028 76.5455 76.5151 75.6281 77.2881 74.8564L77.2905 74.8552ZM118.223 128.639C113.647 132.224 108.359 134.792 102.711 136.172C107.371 131.399 110.918 125.655 113.098 119.351C113.257 118.812 113.202 118.232 112.945 117.733C112.688 117.234 112.248 116.853 111.717 116.669C111.186 116.485 110.605 116.513 110.094 116.746C109.583 116.979 109.182 117.401 108.974 117.922C106.385 125.398 101.687 131.965 95.4471 136.828C95.2784 136.96 95.1302 137.115 95.0075 137.29C89.9563 137.541 84.9019 136.866 80.094 135.296C83.9605 131.732 87.1717 127.517 89.5819 122.844C89.8303 122.331 89.8685 121.741 89.6884 121.2C89.5082 120.66 89.124 120.211 88.6176 119.949C88.1112 119.688 87.5227 119.635 86.9776 119.801C86.4326 119.968 85.9741 120.341 85.7 120.84C83.1916 125.699 79.7304 130.003 75.5228 133.496C69.6482 130.766 64.507 126.678 60.5233 121.57C60.3661 121.363 60.2059 121.153 60.0424 120.94C68.2972 113.909 73.7392 104.136 75.3696 93.4161L133.905 93.1992C134.435 99.9436 133.279 106.714 130.541 112.9C127.804 119.087 123.571 124.495 118.223 128.639ZM92.2794 116.461L92.2158 116.65C92.1252 116.924 91.9813 117.177 91.7923 117.395C91.6033 117.613 91.373 117.792 91.1146 117.92C90.8563 118.049 90.575 118.125 90.287 118.144C89.9991 118.163 89.7102 118.126 89.437 118.032C89.1638 117.939 88.9117 117.793 88.6953 117.602C88.479 117.411 88.3026 117.179 88.1763 116.92C88.0501 116.66 87.9765 116.378 87.9599 116.09C87.9432 115.802 87.9838 115.514 88.0793 115.241L88.1335 115.079C88.3169 114.529 88.7111 114.074 89.2294 113.815C89.7478 113.556 90.3479 113.514 90.8976 113.697C91.4474 113.88 91.9018 114.274 92.161 114.793C92.4201 115.311 92.4627 115.911 92.2794 116.461ZM63.2019 90.3685C63.7814 90.3685 64.3371 90.1383 64.7469 89.7286C65.1566 89.3189 65.3868 88.7631 65.3868 88.1837C65.3868 87.6042 65.1566 87.0485 64.7469 86.6387C64.3371 86.229 63.7814 85.9988 63.2019 85.9988C59.9962 85.9954 56.9228 84.7204 54.656 82.4536C52.3893 80.1868 51.1143 77.1134 51.1108 73.9077V73.9006C51.1077 73.3234 50.8763 72.7709 50.4672 72.3637C50.058 71.9566 49.5044 71.7279 48.9271 71.7275C48.348 71.7275 47.7926 71.9576 47.383 72.3671C46.9735 72.7767 46.7435 73.3321 46.7435 73.9112C46.7388 77.1099 45.4683 80.1768 43.2096 82.4416C40.9509 84.7065 37.8876 85.9854 34.6889 85.9988H34.6512C34.0717 85.9988 33.516 86.229 33.1063 86.6387C32.6965 87.0485 32.4663 87.6042 32.4663 88.1837C32.4663 88.7631 32.6965 89.3189 33.1063 89.7286C33.516 90.1383 34.0717 90.3685 34.6512 90.3685C37.8474 90.3722 40.9125 91.6398 43.1777 93.8949C45.4428 96.1499 46.7242 99.2092 46.7423 102.405V102.458C46.7355 102.75 46.787 103.039 46.8937 103.31C47.0005 103.581 47.1603 103.828 47.3638 104.036C47.5673 104.244 47.8104 104.41 48.0787 104.523C48.3471 104.636 48.6354 104.694 48.9266 104.694C49.2178 104.694 49.506 104.636 49.7744 104.523C50.0428 104.41 50.2858 104.244 50.4893 104.036C50.6928 103.828 50.8526 103.581 50.9594 103.31C51.0661 103.039 51.1176 102.75 51.1108 102.458C51.1142 99.2594 52.3841 96.1917 54.6427 93.9262C56.9014 91.6607 59.9652 90.3816 63.1642 90.3685H63.2019ZM48.926 94.2704C47.4674 91.7401 45.3659 89.6403 42.8345 88.1837C45.3641 86.7253 47.4641 84.6253 48.9224 82.0957C50.38 84.6255 52.4797 86.7256 55.0092 88.1837C52.4812 89.6419 50.3827 91.7415 48.926 94.2704Z" fill="#EEEEEE"/>
<path d="M188.615 85.3888C188.785 87.2664 188.9 89.16 188.957 91.0678L188.378 91.0852C188.406 92.0268 188.42 92.9718 188.42 93.9202C188.42 94.8686 188.406 95.8137 188.378 96.7552L188.957 96.7726C188.9 98.6805 188.785 100.574 188.615 102.452L188.038 102.399C187.867 104.287 187.639 106.158 187.357 108.011L187.93 108.098C187.643 109.984 187.299 111.851 186.901 113.698L186.334 113.576C185.935 115.427 185.481 117.258 184.973 119.067L185.531 119.223C185.016 121.056 184.447 122.867 183.825 124.653L183.277 124.462C182.656 126.247 181.981 128.008 181.255 129.742L181.79 129.966C181.055 131.721 180.269 133.448 179.433 135.147L178.913 134.891C178.078 136.586 177.194 138.252 176.261 139.887L176.764 140.175C175.823 141.825 174.833 143.444 173.795 145.03L173.31 144.713C172.277 146.293 171.198 147.839 170.073 149.351L170.538 149.697C169.405 151.22 168.227 152.708 167.005 154.159L166.562 153.786C165.347 155.228 164.089 156.634 162.79 158.001L163.21 158.401C161.903 159.776 160.555 161.112 159.167 162.406L158.772 161.983C157.393 163.269 155.976 164.514 154.522 165.716L154.891 166.163C153.43 167.371 151.931 168.536 150.398 169.656L150.056 169.187C148.535 170.298 146.979 171.365 145.39 172.384L145.703 172.872C144.109 173.896 142.481 174.873 140.823 175.801L140.54 175.296C138.897 176.215 137.224 177.088 135.523 177.91L135.775 178.432C134.071 179.256 132.338 180.03 130.579 180.753L130.358 180.216C128.62 180.931 126.855 181.595 125.065 182.207L125.253 182.755C123.464 183.367 121.65 183.927 119.814 184.433L119.66 183.874C117.849 184.373 116.016 184.82 114.163 185.212L114.283 185.779C112.435 186.17 110.567 186.508 108.68 186.79L108.595 186.217C106.741 186.494 104.869 186.717 102.981 186.885L103.032 187.463C101.154 187.63 99.2604 187.742 97.3525 187.798L97.3354 187.219C96.3937 187.247 95.4485 187.261 94.5 187.261C93.5515 187.261 92.6062 187.247 91.6645 187.219L91.6474 187.798C89.7395 187.742 87.8458 187.63 85.9679 187.463L86.0193 186.885C84.1312 186.717 82.2594 186.494 80.4053 186.217L80.3195 186.79C78.4332 186.508 76.5651 186.17 74.717 185.779L74.837 185.212C72.9838 184.82 71.1507 184.373 69.3397 183.874L69.1856 184.433C67.3498 183.927 65.5364 183.367 63.7472 182.755L63.9348 182.207C62.1453 181.595 60.3802 180.931 58.6415 180.216L58.4211 180.753C56.6617 180.03 54.9291 179.256 53.2251 178.432L53.4773 177.91C51.7755 177.088 50.1025 176.215 48.4601 175.296L48.1768 175.801C46.5184 174.873 44.8912 173.896 43.2969 172.872L43.61 172.384C42.0211 171.365 40.4652 170.298 38.9441 169.187L38.6022 169.656C37.0685 168.536 35.5701 167.371 34.1089 166.163L34.4783 165.716C33.0238 164.514 31.6065 163.269 30.2282 161.983L29.8327 162.406C28.445 161.112 27.0967 159.776 25.7898 158.401L26.21 158.001C24.911 156.634 23.653 155.228 22.4381 153.786L21.9947 154.159C20.7731 152.708 19.5947 151.22 18.4616 149.697L18.9268 149.351C17.8023 147.839 16.7226 146.293 15.6897 144.713L15.2045 145.03C14.1674 143.444 13.1771 141.825 12.2357 140.175L12.7393 139.887C11.8063 138.252 10.9217 136.586 10.0871 134.891L9.56701 135.147C8.7307 133.448 7.94446 131.721 7.2102 129.966L7.74501 129.742C7.01912 128.008 6.34436 126.247 5.7226 124.462L5.1751 124.653C4.55313 122.867 3.98386 121.056 3.46914 119.223L4.0273 119.067C3.51941 117.258 3.06495 115.427 2.66572 113.576L2.099 113.698C1.70067 111.851 1.35699 109.984 1.06972 108.098L1.64286 108.011C1.36053 106.158 1.13301 104.287 0.96202 102.399L0.38463 102.452C0.21452 100.574 0.100011 98.6805 0.0427502 96.7726L0.622244 96.7552C0.593985 95.8137 0.579754 94.8686 0.579754 93.9202C0.579754 92.9718 0.593985 92.0268 0.622244 91.0852L0.0427502 91.0678C0.100011 89.16 0.21452 87.2664 0.38463 85.3888L0.96202 85.4411C1.13301 83.5537 1.36053 81.6826 1.64286 79.8294L1.06972 79.7421C1.35699 77.8565 1.70067 75.9893 2.099 74.1423L2.66573 74.2645C3.06495 72.4133 3.51941 70.5825 4.0273 68.7738L3.46914 68.6171C3.98387 66.7841 4.55314 64.9737 5.1751 63.1878L5.7226 63.3785C6.34436 61.5931 7.01912 59.8324 7.74501 58.098L7.2102 57.8742C7.94446 56.1198 8.7307 54.3924 9.56701 52.6937L10.0871 52.9498C10.9217 51.2548 11.8063 49.5886 12.7393 47.9532L12.2357 47.6659C13.1771 46.0156 14.1674 44.3964 15.2045 42.8103L15.6897 43.1276C16.7226 41.5479 17.8023 40.0013 18.9268 38.4895L18.4616 38.1435C19.5947 36.6202 20.7731 35.1322 21.9947 33.6814L22.4381 34.0548C23.653 32.612 24.911 31.2061 26.21 29.8393L25.7898 29.4399C27.0967 28.0647 28.445 26.7288 29.8327 25.434L30.2282 25.8579C31.6065 24.5719 33.0238 23.3268 34.4783 22.1245L34.1089 21.6777C35.5701 20.4698 37.0685 19.3048 38.6022 18.1848L38.9441 18.653C40.4652 17.5422 42.0212 16.4759 43.6101 15.456L43.2969 14.9681C44.8912 13.9447 46.5185 12.9676 48.1768 12.0389L48.4601 12.5448C50.1025 11.625 51.7756 10.7529 53.4774 9.9304L53.2251 9.40841C54.9291 8.58484 56.6617 7.81067 58.4211 7.08778L58.6415 7.62404C60.3802 6.90963 62.1453 6.24562 63.9348 5.63383L63.7473 5.08525C65.5364 4.4736 67.3498 3.91383 69.1857 3.40775L69.3397 3.96666C71.1508 3.46744 72.9838 3.02079 74.8371 2.62846L74.717 2.06127C76.5651 1.67003 78.4332 1.33249 80.3196 1.05037L80.4053 1.62375C82.2594 1.34645 84.1313 1.12302 86.0193 0.955101L85.9679 0.377625C87.8458 0.210607 89.7396 0.0981854 91.6475 0.0419699L91.6646 0.621473C92.6063 0.593726 93.5515 0.579754 94.5 0.579754C95.4485 0.579754 96.3937 0.593727 97.3354 0.621474L97.3525 0.041971C99.2604 0.0981873 101.154 0.210609 103.032 0.377629L102.981 0.955104C104.869 1.12302 106.741 1.34646 108.595 1.62375L108.68 1.05038C110.567 1.3325 112.435 1.67004 114.283 2.06128L114.163 2.62846C116.016 3.02079 117.849 3.46745 119.66 3.96667L119.814 3.40776C121.65 3.91384 123.464 4.47361 125.253 5.08526L125.065 5.63384C126.855 6.24562 128.62 6.90964 130.358 7.62405L130.579 7.08779C132.338 7.81068 134.071 8.58484 135.775 9.40842L135.523 9.9304C137.224 10.7529 138.897 11.625 140.54 12.5448L140.823 12.039C142.482 12.9676 144.109 13.9447 145.703 14.9681L145.39 15.456C146.979 16.4759 148.535 17.5422 150.056 18.653L150.398 18.1848C151.931 19.3048 153.43 20.4698 154.891 21.6776L154.522 22.1245C155.976 23.3268 157.393 24.5719 158.772 25.8579L159.167 25.434C160.555 26.7288 161.903 28.0647 163.21 29.4399L162.79 29.8393C164.089 31.2061 165.347 32.612 166.562 34.0548L167.005 33.6814C168.227 35.1322 169.405 36.6202 170.538 38.1435L170.073 38.4895C171.198 40.0013 172.277 41.5479 173.31 43.1276L173.795 42.8103C174.833 44.3964 175.823 46.0156 176.764 47.6659L176.261 47.9532C177.194 49.5886 178.078 51.2548 178.913 52.9498L179.433 52.6937C180.269 54.3924 181.055 56.1199 181.79 57.8742L181.255 58.098C181.981 59.8324 182.656 61.5931 183.277 63.3785L183.825 63.1878C184.447 64.9737 185.016 66.7841 185.531 68.6171L184.973 68.7738C185.481 70.5825 185.935 72.4133 186.334 74.2645L186.901 74.1423C187.299 75.9893 187.643 77.8565 187.93 79.7421L187.357 79.8294C187.639 81.6826 187.867 83.5537 188.038 85.4411L188.615 85.3888Z" stroke="black" stroke-width="1.15589" stroke-dasharray="5.78 5.78"/>
</svg>
