<svg width="9" height="8" viewBox="0 0 9 8" fill="none" xmlns="http://www.w3.org/2000/svg">
<path fill-rule="evenodd" clip-rule="evenodd" d="M0.656786 0.684831C1.07745 0.26429 1.64792 0.0280441 2.24275 0.0280441C2.83757 0.0280441 3.40804 0.26429 3.82871 0.684831L4.48597 1.34154L5.14324 0.684831C5.35017 0.47058 5.5977 0.299686 5.87138 0.18212C6.14506 0.064555 6.43942 0.00267297 6.73727 8.46969e-05C7.03513 -0.00250357 7.33051 0.054254 7.6062 0.167045C7.88188 0.279837 8.13234 0.446403 8.34297 0.657026C8.55359 0.867648 8.72016 1.11811 8.83295 1.39379C8.94574 1.66948 9.00249 1.96487 8.99991 2.26272C8.99732 2.56057 8.93544 2.85493 8.81787 3.12861C8.70031 3.40229 8.52941 3.64982 8.31516 3.85675L4.48597 7.6865L0.656786 3.85675C0.236246 3.43609 0 2.86562 0 2.27079C0 1.67597 0.236246 1.1055 0.656786 0.684831Z" fill="#E3C665"/>
</svg>
