<svg width="24" height="24" viewBox="0 0 24 24" fill="none" xmlns="http://www.w3.org/2000/svg">
<circle cx="12" cy="12" r="12" fill="white"/>
<path d="M8.68678 4.05595C7.83557 4.09611 7.25429 4.23195 6.74612 4.43163C6.2202 4.6366 5.77443 4.91164 5.33091 5.35676C4.88738 5.80189 4.61426 6.24797 4.41074 6.7747C4.21378 7.28398 4.08033 7.86575 4.04273 8.71744C4.00513 9.56913 3.99681 9.84289 4.00097 12.0154C4.00513 14.1879 4.01473 14.4602 4.05601 15.3137C4.09665 16.1647 4.23202 16.7458 4.4317 17.2542C4.63698 17.7801 4.9117 18.2257 5.35699 18.6694C5.80227 19.1131 6.24804 19.3855 6.77604 19.5894C7.28485 19.786 7.86677 19.9201 8.7183 19.9574C9.56983 19.9947 9.84391 20.0033 12.0158 19.9992C14.1876 19.995 14.4611 19.9854 15.3144 19.9449C16.1677 19.9044 16.7457 19.7681 17.2542 19.5694C17.7802 19.3636 18.2261 19.0894 18.6694 18.6439C19.1128 18.1985 19.3858 17.7521 19.5891 17.225C19.7863 16.7162 19.9202 16.1343 19.9571 15.2834C19.9944 14.4295 20.0032 14.1569 19.9991 11.9847C19.9949 9.81249 19.9851 9.54017 19.9447 8.68704C19.9042 7.83391 19.7687 7.25454 19.5691 6.7459C19.3635 6.21997 19.0891 5.77469 18.644 5.33068C18.1989 4.88668 17.7522 4.61388 17.2253 4.41099C16.7161 4.21403 16.1345 4.07979 15.283 4.04299C14.4315 4.00619 14.1574 3.99675 11.9847 4.00091C9.81207 4.00507 9.54007 4.01435 8.68678 4.05595ZM8.78022 18.5182C8.00021 18.4843 7.57669 18.3547 7.29445 18.2462C6.92068 18.1022 6.65444 17.9281 6.37316 17.6495C6.09187 17.371 5.91907 17.1038 5.77315 16.7308C5.66355 16.4486 5.53155 16.0255 5.49507 15.2455C5.45539 14.4025 5.44707 14.1493 5.44243 12.0135C5.43779 9.87761 5.44595 9.62481 5.48291 8.78144C5.51619 8.00207 5.64659 7.57807 5.75491 7.29598C5.89891 6.92174 6.07235 6.65598 6.35156 6.37485C6.63076 6.09373 6.89716 5.92061 7.27045 5.77469C7.55237 5.66461 7.97541 5.53373 8.7551 5.49661C9.59879 5.4566 9.85159 5.4486 11.9871 5.44396C14.1227 5.43932 14.3761 5.44732 15.2201 5.48445C15.9995 5.51837 16.4237 5.64749 16.7054 5.75645C17.0793 5.90045 17.3454 6.07341 17.6266 6.35309C17.9077 6.63278 18.081 6.89822 18.2269 7.2723C18.3371 7.55343 18.468 7.97631 18.5048 8.75648C18.545 9.60017 18.5541 9.85313 18.5579 11.9885C18.5618 14.1239 18.5542 14.3775 18.5173 15.2205C18.4832 16.0006 18.3539 16.4242 18.2453 16.7068C18.1013 17.0804 17.9277 17.3468 17.6483 17.6278C17.3689 17.9087 17.1029 18.0819 16.7294 18.2278C16.4478 18.3377 16.0243 18.4689 15.2452 18.506C14.4016 18.5457 14.1488 18.554 12.0124 18.5587C9.87607 18.5633 9.62407 18.5547 8.78038 18.5182M15.302 7.72431C15.3024 7.91419 15.359 8.09972 15.4648 8.25742C15.5705 8.41513 15.7207 8.53792 15.8962 8.61028C16.0718 8.68264 16.2649 8.70131 16.451 8.66393C16.6372 8.62655 16.8081 8.53481 16.9421 8.40029C17.0762 8.26577 17.1673 8.09454 17.204 7.90823C17.2407 7.72192 17.2213 7.52892 17.1483 7.35363C17.0753 7.17834 16.9519 7.02863 16.7938 6.92344C16.6358 6.81826 16.45 6.76232 16.2601 6.7627C16.0056 6.76321 15.7617 6.86479 15.582 7.04512C15.4023 7.22545 15.3016 7.46975 15.302 7.72431ZM7.89237 12.008C7.89685 14.2769 9.73943 16.1119 12.0078 16.1076C14.2761 16.1033 16.1125 14.2609 16.1081 11.992C16.1038 9.72321 14.2608 7.88767 11.9921 7.89215C9.72343 7.89663 7.88805 9.73953 7.89237 12.008ZM9.33335 12.0052C9.3323 11.4777 9.48769 10.9618 9.77984 10.5227C10.072 10.0836 10.4878 9.74095 10.9747 9.53815C11.4616 9.33534 11.9977 9.28147 12.5152 9.38335C13.0327 9.48522 13.5083 9.73826 13.882 10.1105C14.2557 10.4827 14.5106 10.9573 14.6146 11.4744C14.7185 11.9915 14.6667 12.5278 14.4659 13.0155C14.265 13.5032 13.924 13.9204 13.486 14.2143C13.0481 14.5082 12.5328 14.6656 12.0054 14.6666C11.6552 14.6674 11.3082 14.5991 10.9844 14.4657C10.6606 14.3324 10.3662 14.1365 10.1181 13.8894C9.86993 13.6422 9.67292 13.3486 9.53828 13.0253C9.40363 12.702 9.334 12.3554 9.33335 12.0052Z" fill="#001B1B"/>
</svg>
