<svg width="23" height="23" viewBox="0 0 23 23" fill="none" xmlns="http://www.w3.org/2000/svg">
<circle cx="11.5" cy="11.5" r="11.5" fill="#539B9B"/>
<path d="M9.37549 15.3946L9.37668 15.3933L6.18067 11.8109C6.07278 11.6858 6.01301 11.5183 6.01425 11.3444C6.01549 11.1704 6.07763 11.004 6.18729 10.8809C6.29694 10.7578 6.44535 10.6879 6.60053 10.6863C6.75571 10.6846 6.90526 10.7514 7.01696 10.8721L10.213 14.4552L16.4908 7.41978C16.5454 7.35642 16.6107 7.30588 16.6829 7.27111C16.7551 7.23634 16.8327 7.21804 16.9113 7.21728C16.9899 7.21651 17.0678 7.2333 17.1406 7.26665C17.2133 7.30001 17.2794 7.34927 17.335 7.41156C17.3905 7.47385 17.4345 7.54792 17.4642 7.62945C17.494 7.71098 17.509 7.79833 17.5083 7.88642C17.5076 7.97451 17.4913 8.06156 17.4603 8.1425C17.4293 8.22344 17.3842 8.29664 17.3276 8.35784L10.6308 15.8636C10.5198 15.988 10.3693 16.0578 10.2124 16.0578C10.0554 16.0578 9.90492 15.988 9.79393 15.8636L9.37549 15.3946Z" fill="white"/>
</svg>
