<svg width="9" height="7" viewBox="0 0 9 7" fill="none" xmlns="http://www.w3.org/2000/svg">
<path fill-rule="evenodd" clip-rule="evenodd" d="M0.606609 0.62366C0.995138 0.240684 1.52203 0.0255392 2.07141 0.0255392C2.62079 0.0255392 3.14767 0.240684 3.5362 0.62366L4.14326 1.22171L4.75031 0.62366C4.94143 0.428546 5.17005 0.272917 5.42282 0.165853C5.67559 0.0587888 5.94746 0.00243421 6.22256 7.71316e-05C6.49766 -0.00227995 6.77048 0.0494079 7.0251 0.152125C7.27972 0.254841 7.51105 0.406529 7.70558 0.598339C7.90011 0.790148 8.05396 1.01824 8.15813 1.2693C8.2623 1.52036 8.31472 1.78936 8.31233 2.06061C8.30994 2.33186 8.25279 2.59992 8.14421 2.84916C8.03562 3.09839 7.87778 3.32381 7.6799 3.51226L4.14326 6.99993L0.606609 3.51226C0.218198 3.12917 0 2.60965 0 2.06796C0 1.52627 0.218198 1.00675 0.606609 0.62366Z" fill="#F6DE84"/>
</svg>
